<svg width="40" height="39" viewBox="0 0 40 39" fill="none" xmlns="http://www.w3.org/2000/svg">
<path d="M26.3679 23.2608H25.0006L24.4873 22.8429C26.1116 20.9209 27.1374 18.497 27.1374 15.7393C27.1373 9.72197 22.1794 4.875 16.0262 4.875C9.95719 4.875 5 9.72197 5 15.7393C5 21.7567 9.95719 26.6036 16.1113 26.6036C18.8466 26.6036 21.4106 25.6006 23.3763 24.0131L23.8888 24.4311V25.768L32.4359 34.125L35 31.6179L26.3679 23.2608ZM16.1113 23.2608C11.8377 23.2608 8.41891 19.9178 8.41891 15.7393C8.41891 11.5607 11.8377 8.21796 16.1113 8.21796C20.3848 8.21796 23.8037 11.5607 23.8037 15.7393C23.8037 19.9178 20.3848 23.2608 16.1113 23.2608Z" fill="#717888"/>
</svg>
