<svg width="58" height="58" viewBox="0 0 58 58" fill="none" xmlns="http://www.w3.org/2000/svg">
<path d="M38.2334 34.5929H36.2509L35.5065 33.9715C37.8618 31.1131 39.3493 27.5083 39.3493 23.4072C39.3491 14.4583 32.1601 7.25 23.2379 7.25C14.4379 7.25 7.25 14.4583 7.25 23.4072C7.25 32.3561 14.4379 39.5643 23.3614 39.5643C27.3275 39.5643 31.0454 38.0727 33.8956 35.7118L34.6388 36.3334V38.3216L47.0321 50.75L50.75 47.0215L38.2334 34.5929ZM23.3614 34.5929C17.1647 34.5929 12.2074 29.6213 12.2074 23.4072C12.2074 17.1928 17.1647 12.2216 23.3614 12.2216C29.5579 12.2216 34.5153 17.1928 34.5153 23.4072C34.5153 29.6213 29.5579 34.5929 23.3614 34.5929Z" fill="#6E7687"/>
</svg>
